<svg width="16" height="17" viewBox="0 0 16 17" fill="none" xmlns="http://www.w3.org/2000/svg">
<g filter="url(#filter0_di_90_11)">
<path fill-rule="evenodd" clip-rule="evenodd" d="M5.5 3.5L6.5 3V0H9.5V3L10.5 3.5L12.5 1.5L14.5 3.5L12.5 5.5L13 6.5H16V9.5H13L12.5 10.5L14.5 12.5L12.5 14.5L10.5 12.5L9.5 13V16H6.5V13L5.5 12.5L3.5 14.5L1.5 12.5L3.5 10.5L3 9.5H0V6.5H3L3.5 5.5L1.5 3.5L3.5 1.5L5.5 3.5ZM8 11C9.65685 11 11 9.65685 11 8C11 6.34315 9.65685 5 8 5C6.34315 5 5 6.34315 5 8C5 9.65685 6.34315 11 8 11Z" fill="url(#paint0_linear_90_11)"/>
</g>
<defs>
<filter id="filter0_di_90_11" x="0" y="0" width="16" height="17" filterUnits="userSpaceOnUse" color-interpolation-filters="sRGB">
<feFlood flood-opacity="0" result="BackgroundImageFix"/>
<feColorMatrix in="SourceAlpha" type="matrix" values="0 0 0 0 0 0 0 0 0 0 0 0 0 0 0 0 0 0 127 0" result="hardAlpha"/>
<feOffset dy="1"/>
<feComposite in2="hardAlpha" operator="out"/>
<feColorMatrix type="matrix" values="0 0 0 0 1 0 0 0 0 1 0 0 0 0 1 0 0 0 1 0"/>
<feBlend mode="normal" in2="BackgroundImageFix" result="effect1_dropShadow_90_11"/>
<feBlend mode="normal" in="SourceGraphic" in2="effect1_dropShadow_90_11" result="shape"/>
<feColorMatrix in="SourceAlpha" type="matrix" values="0 0 0 0 0 0 0 0 0 0 0 0 0 0 0 0 0 0 127 0" result="hardAlpha"/>
<feOffset dy="1"/>
<feGaussianBlur stdDeviation="1"/>
<feComposite in2="hardAlpha" operator="arithmetic" k2="-1" k3="1"/>
<feColorMatrix type="matrix" values="0 0 0 0 0 0 0 0 0 0.0358333 0 0 0 0 0.358333 0 0 0 1 0"/>
<feBlend mode="normal" in2="shape" result="effect2_innerShadow_90_11"/>
</filter>
<linearGradient id="paint0_linear_90_11" x1="8" y1="5" x2="8" y2="16" gradientUnits="userSpaceOnUse">
<stop stop-color="#3B5698"/>
<stop offset="1" stop-color="#223667"/>
</linearGradient>
</defs>
</svg>
