<svg width="16" height="17" viewBox="0 0 16 17" fill="none" xmlns="http://www.w3.org/2000/svg">
<g filter="url(#filter0_d_132_7)">
<path fill-rule="evenodd" clip-rule="evenodd" d="M6.5 3L5.5 3.5L3.5 1.5L1.5 3.5L3.5 5.5L3 6.5H0V9.5H3L3.5 10.5L1.5 12.5L3.5 14.5L5.5 12.5L6.5 13V16H9.5V13L10.5 12.5L12.5 14.5L14.5 12.5L12.5 10.5L13 9.5H16V6.5H13L12.5 5.5L14.5 3.5L12.5 1.5L10.5 3.5L9.5 3V0H6.5V3ZM8 10.5C9.38071 10.5 10.5 9.38071 10.5 8C10.5 6.61929 9.38071 5.5 8 5.5C6.61929 5.5 5.5 6.61929 5.5 8C5.5 9.38071 6.61929 10.5 8 10.5Z" fill="url(#paint0_linear_132_7)" shape-rendering="crispEdges"/>
<path fill-rule="evenodd" clip-rule="evenodd" d="M8 12.5714C10.5247 12.5714 12.5714 10.5248 12.5714 8C12.5714 5.47517 10.5247 3.42857 8 3.42857C5.47531 3.42857 3.42857 5.47517 3.42857 8C3.42857 10.5248 5.47531 12.5714 8 12.5714ZM8 11.4286C9.89356 11.4286 11.4286 9.89342 11.4286 8C11.4286 6.10659 9.89356 4.57143 8 4.57143C6.10645 4.57143 4.57143 6.10659 4.57143 8C4.57143 9.89342 6.10645 11.4286 8 11.4286Z" fill="white" fill-opacity="0.35" shape-rendering="crispEdges"/>
</g>
<defs>
<filter id="filter0_d_132_7" x="0" y="0" width="16" height="17" filterUnits="userSpaceOnUse" color-interpolation-filters="sRGB">
<feFlood flood-opacity="0" result="BackgroundImageFix"/>
<feColorMatrix in="SourceAlpha" type="matrix" values="0 0 0 0 0 0 0 0 0 0 0 0 0 0 0 0 0 0 127 0" result="hardAlpha"/>
<feOffset dy="1"/>
<feComposite in2="hardAlpha" operator="out"/>
<feColorMatrix type="matrix" values="0 0 0 0 0 0 0 0 0 0 0 0 0 0 0 0 0 0 0.25 0"/>
<feBlend mode="normal" in2="BackgroundImageFix" result="effect1_dropShadow_132_7"/>
<feBlend mode="normal" in="SourceGraphic" in2="effect1_dropShadow_132_7" result="shape"/>
</filter>
<linearGradient id="paint0_linear_132_7" x1="8" y1="0" x2="8" y2="16" gradientUnits="userSpaceOnUse">
<stop stop-color="#7193D6"/>
<stop offset="1" stop-color="#063084"/>
</linearGradient>
</defs>
</svg>
